# xmcd
#
# Track frame offsets: 
#        150
#        12618
#        24998
#        37852
#        48633
#        60568
#        72978
#        85269
#        97482
#        109283
#        123291
#        135458
#        147548
#        159006
#        169731
#        181524
#        192671
#        203816
#        223480
#        239046
#
# Disc length: 3442 seconds
#
# Revision: 2
# Processed by: cddbd v1.5.2PL0 Copyright (c) Steve Scherf et al.
# Submitted via: ExactAudioCopy v0.99pb4
#
DISCID=2b0d7014
DTITLE=Jerry Butler - Legends Of Soul
DYEAR=2002
DGENRE=Soul
TTITLE0=For Your Precious Love
TTITLE1=He Will Break Your Heart
TTITLE2=Find Another Girl
TTITLE3=I'm A-Telling You
TTITLE4=Moon River
TTITLE5=Make It Easy On Yourself
TTITLE6=Let It Be Me
TTITLE7=I Dig You Baby
TTITLE8=Mr. Dream Merchant
TTITLE9=Never Give You Up
TTITLE10=Hey Western Union Man
TTITLE11=Are You Happy
TTITLE12=Only The Strong Survive
TTITLE13=Moody Woman
TTITLE14=What's The Use Of Breaking Up
TTITLE15=Don't Let Love Hang You Up
TTITLE16=I Could Write A Book (About The Way You Hurt Me)
TTITLE17=Ain't Understanding Mellow
TTITLE18=One Night Affair
TTITLE19=(They Long To Be) Close To You
EXTD=Bar Code 1058306622
EXTT0=
EXTT1=
EXTT2=
EXTT3=
EXTT4=
EXTT5=
EXTT6=
EXTT7=
EXTT8=
EXTT9=
EXTT10=
EXTT11=
EXTT12=
EXTT13=
EXTT14=
EXTT15=
EXTT16=
EXTT17=
EXTT18=
EXTT19=
PLAYORDER=
